<svg viewBox="0 0 499.997 500.002" xml:space="preserve" xmlns="http://www.w3.org/2000/svg" enable-background="new 0 0 499.997 500.002"><path d="M250.001 0C111.925 0 0 111.93 0 249.996c0 138.076 111.925 250.006 250.001 250.006 138.062 0 249.996-111.93 249.996-250.006C499.997 111.93 388.063 0 250.001 0z" fill="#ec5240" class="fill-f2955c"></path><path d="M134.404 220.076c19.603 21.946 53.292 23.837 75.243 4.22 21.936-19.603 23.832-53.287 4.22-75.233-19.612-21.941-53.292-23.833-75.243-4.23-21.94 19.618-23.827 53.302-4.22 75.243z" fill="#272a31" class="fill-656d78"></path><path d="m134.991 220.706 79.283-71.167a53.121 53.121 0 0 1 10.124 17.386l-73.214 65.72a53.033 53.033 0 0 1-16.193-11.939z" fill="#ccd1d9" class="fill-ccd1d9"></path><path d="M133.332 226.615c2.683 2.998 7.296 3.255 10.303.577l76.237-68.131a7.305 7.305 0 0 0 .587-10.313l-2.086-2.328c-2.697-3.003-7.31-3.265-10.318-.582l-76.232 68.126a7.304 7.304 0 0 0-.577 10.313l2.086 2.338z" fill="#cfd5e1" class="fill-cfd5e1"></path><path d="M299.732 319.98c10.304 12.307 20.898 24.429 32.123 35.901 11.686 11.934 28.655 3.42 26.001-13.282-1.193-7.548-6.495-15.552-9.256-22.76-11.491-30.047-10.449-64.017 26.19-72.487 4.385-1.019 6.243 5.724 1.858 6.743-24.662 5.695-31.211 24.095-26.375 47.204 1.926 9.129 5.346 17.967 9.101 26.471 3.226 7.344 7.572 15.217 5.491 23.546-3.754 15.043-19.777 22.212-33.141 13.844-8.756-5.496-16.037-16.193-22.824-23.852a823.906 823.906 0 0 1-14.111-16.376c-2.862-3.438 2.047-8.411 4.943-4.952z" fill="#efeff0" class="fill-efeff0"></path><path d="M286.005 344.23c1.528 1.485 4.07 1.552 5.661.131l27.999-25.031c1.601-1.416 1.819-3.958.51-5.636l-87.501-111.833c-1.309-1.669-2.823-.786-4.41.631l-42.465 37.953c-1.591 1.416-2.765 2.92-1.247 4.424l101.453 99.361z" fill="#d3d3d3" class="fill-ffffff"></path><path d="m235.196 270.511-12.307-13.718c-2.508-2.78-2.28-7.092.509-9.595l7.694-6.913c2.794-2.504 7.102-2.28 9.605.519l12.312 13.709c2.508 2.799 2.28 7.107-.519 9.61l-7.689 6.908c-2.789 2.502-7.107 2.279-9.605-.52zm-9.852-21.155a3.906 3.906 0 0 0-.296 5.501l12.307 13.714c1.441 1.596 3.905 1.737 5.506.301l7.689-6.903a3.898 3.898 0 0 0 .296-5.501l-12.307-13.714a3.894 3.894 0 0 0-5.506-.296l-7.689 6.898z" fill="#efeff0" class="fill-efeff0"></path><path d="M236.278 269.536c1.97 2.198 5.36 2.396 7.548.408l7.698-6.898a5.353 5.353 0 0 0 .402-7.558l-12.307-13.709a5.348 5.348 0 0 0-7.553-.407l-7.689 6.908a5.327 5.327 0 0 0-.412 7.543l12.313 13.713z" fill="#ec5242" class="fill-dfc97a"></path><path d="M235.031 197.16c.708.8.641 2.023-.15 2.736l-52.409 46.835a1.929 1.929 0 0 1-2.731-.151l-5.36-6.001a1.943 1.943 0 0 1 .155-2.726l52.414-46.835a1.933 1.933 0 0 1 2.731.151l5.35 5.991z" fill="#848a93" class="fill-848a93"></path><path d="m183.554 238.005 48.926-43.711 2.551 2.867c.708.8.641 2.023-.15 2.736l-52.409 46.835a1.929 1.929 0 0 1-2.731-.151l-1.771-1.965c1.339-1.567 2.639-3.163 3.949-4.691.548-.63 1.096-1.27 1.635-1.92z" fill="#e6e9ed" class="fill-e6e9ed"></path></svg>