<svg viewBox="0 0 87.46 56.5" xmlns="http://www.w3.org/2000/svg"><g data-name="Layer 2"><g data-name="Layer 1"><path d="M86.96 33.82v5.09M15.17 10.4h67.77a4 4 0 0 1 4 4v15.14M21 56H4.51a4 4 0 0 1-4-4V14.41a4 4 0 0 1 4-4H10M37.46 56h-7.64M87 47.1V52a4 4 0 0 1-4 4H43.13M32.75 27.69a15.06 15.06 0 0 1 1.66 3.46" stroke-linecap="round" fill="none" stroke="#ec5242" stroke-miterlimit="10" class="stroke-373535"></path><path d="M7.17 43.82a15.12 15.12 0 0 1 23.91-18.26M11.23 48.19A15.21 15.21 0 0 1 8.8 46M35 33.82A15.14 15.14 0 0 1 20.06 51a15.06 15.06 0 0 1-6.53-1.48M25.61 34.78l4.64 4.64M18.35 27.52l6.32 6.31M16.35 25.51l1 1.01M25.78 41.84l1.03 1.03M18.31 34.37l6.51 6.51M12.9 28.96l4.41 4.41M18.55 41.51l4.81 4.8M15.11 38.06l2.51 2.51M9.45 32.41l4.6 4.6M21.04 41.62l-4.69 4.69M24.27 38.39l-2.25 2.25M30.25 32.41l-4.73 4.73M17.44 38.32l-4.54 4.55M24.48 31.29l-6.13 6.13M26.81 28.96l-1.17 1.17M10.47 38.41l-1.02 1.01M17.68 31.19l-6.37 6.37M23.36 25.51l-4.64 4.65M80.09 27.69a15.06 15.06 0 0 1 1.66 3.46M54.5 43.82a15.12 15.12 0 0 1 23.91-18.26M58.56 48.19A15.21 15.21 0 0 1 56.13 46M82.38 33.82A15.14 15.14 0 0 1 67.4 51a15.06 15.06 0 0 1-6.53-1.48M72.95 34.78l4.64 4.64M65.69 27.52 72 33.83M63.68 25.51l1.01 1.01M73.12 41.84l1.02 1.03M65.65 34.37l6.5 6.51M60.24 28.96l4.41 4.41M65.89 41.51l4.8 4.8M62.44 38.06l2.51 2.51M56.79 32.41l4.6 4.6M68.37 41.62l-4.69 4.69M71.6 38.39l-2.25 2.25M77.59 32.41l-4.74 4.73M64.78 38.32l-4.54 4.55M71.81 31.29l-6.12 6.13M74.14 28.96l-1.16 1.17M57.8 38.41l-1.01 1.01M65.02 31.19l-6.38 6.37M70.69 25.51l-4.64 4.65" stroke-linecap="round" fill="none" stroke="#ec5242" stroke-miterlimit="10" class="stroke-373535"></path><rect height="7.93" rx=".77" ry=".77" width="11.88" x="37.79" y="33.82" stroke-linecap="round" fill="none" stroke="#ec5242" stroke-miterlimit="10" class="stroke-373535"></rect><path d="M40.13 33.82a9.18 9.18 0 0 1-.13 7.94M47.33 33.82a9.18 9.18 0 0 0 .16 7.94M48.88 47.1h2.46M45.07 47.1h1.92M39.56 47.1h3.57M36 47.1h1.79M.5 17.75h86.46M34.32 15.22V16M34.32 11.88v2.25M37.46 14.35V16M37.46 11.88V13M40.59 14.63V16M40.59 11.88v1.37M43.73 13.25V16M43.73 11.88v.31M46.86 15.06V16M46.86 11.88v1.78M50 15.5v.5M50 11.88v2.06M53.13 14.13V16M53.13 11.88v.68" stroke-linecap="round" fill="none" stroke="#ec5242" stroke-miterlimit="10" class="stroke-373535"></path><path d="M20 10.4V3.87A2.87 2.87 0 0 1 22.91 1h44.31a2.87 2.87 0 0 1 2.87 2.87v6.53" stroke-width="2px" fill="none" stroke="#ec5242" stroke-miterlimit="10" class="stroke-373535"></path></g></g></svg>