<?xml version="1.0"?>
<svg xmlns="http://www.w3.org/2000/svg" xmlns:xlink="http://www.w3.org/1999/xlink" xmlns:svgjs="http://svgjs.com/svgjs" version="1.1" width="512" height="512" x="0" y="0" viewBox="0 0 24 24" style="enable-background:new 0 0 512 512" xml:space="preserve"><g><path xmlns="http://www.w3.org/2000/svg" d="m7.5 13a4.5 4.5 0 1 1 4.5-4.5 4.505 4.505 0 0 1 -4.5 4.5zm7.5 7a5.006 5.006 0 0 0 -5-5h-5a5.006 5.006 0 0 0 -5 5v4h15zm2.5-11a4.5 4.5 0 1 1 4.5-4.5 4.505 4.505 0 0 1 -4.5 4.5zm1.5 2h-5a4.793 4.793 0 0 0 -.524.053 6.514 6.514 0 0 1 -1.576 2.216 7.008 7.008 0 0 1 5.1 6.731h7v-4a5.006 5.006 0 0 0 -5-5z" fill="#ec5242" data-original="#000000"/></g></svg>
